<?xml version="1.0" encoding="utf-8"?>
<!-- Generator: Adobe Illustrator 24.3.0, SVG Export Plug-In . SVG Version: 6.00 Build 0)  -->
<svg version="1.1" id="Слой_1" xmlns="http://www.w3.org/2000/svg" xmlns:xlink="http://www.w3.org/1999/xlink" x="0px" y="0px"
	 viewBox="0 0 64 64" style="enable-background:new 0 0 64 64;" xml:space="preserve">
<style type="text/css">
	.st0{fill-rule:evenodd;clip-rule:evenodd;fill:#1F9363;}
	.st1{fill-rule:evenodd;clip-rule:evenodd;fill:#FFFFFF;}
</style>
<circle class="st0" cx="31.9" cy="32.1" r="31.9"/>
<path class="st1" d="M32.8,5.2c0.2,0,0.4-0.1,0.6,0.1c1.1,1.1,2.1,2.2,3.1,3.4c1.1,1.4,2.2,2.8,3.1,4.4c0,0,0.1,0.1,0.1,0.1
	c2.7-0.6,5.6-0.6,8.3,0c2.6,0.5,5.1,1.6,7.2,3.2c-0.3,0.9-0.5,1.9-0.8,2.8c-0.8,3.2-1.5,6.4-2,9.6c-0.1,0.4-0.1,0.7-0.2,1.1
	c0.2,0.1,0.4,0.1,0.5,0.2c0.1-0.5,0.2-1,0.2-1.5c0.2-0.8,0.3-1.6,0.4-2.4c0.6-3.1,1.3-6.3,2.1-9.3c0.1-0.3,0.5-0.6,0.8-0.3
	c0.1,0.1,0.2,0.3,0.2,0.5c-0.9,3-1.5,6.1-2.1,9.2c-0.3,1.4-0.6,2.8-0.7,4.1c0.2,0.1,0.5,0.2,0.7,0.3c0.2-1.5,0.5-2.9,0.8-4.4
	c0.5-2.7,1.1-5.3,1.8-7.9c0.1-0.4,0.1-0.9,0.5-1.1c0.2,0,0.4,0,0.5,0.1l0,0.1c0,0.1,0,0.2,0,0.4c0,0.3-0.1,0.5-0.2,0.8
	C57,21,56.5,23.5,56,26c-0.4,1.8-0.8,3.7-1,5.5c0.9,0.5,1.8,0.9,2.6,1.5c0.3,0.2,0.4,0.5,0.5,0.8c0,0.1-0.1,0.2-0.1,0.3
	c0.7,0.9,1.4,1.7,2.1,2.7c0.3,0.4,0.7,1,0.4,1.5c-0.6,0.7-1.6,0.6-2.4,1c-0.6,0.2-1.1,0.7-1.7,1c-0.3,0.2-0.7,0.4-1,0.6
	c-0.1,0.1-0.2,0.1-0.2,0.2c0,0.3,0.2,0.8-0.2,1c0,0.1-0.1,0.2-0.2,0.2c-0.5,0.1-1,0.3-1.6,0.5c-0.6,3.9-1.1,8-1.5,11.9
	c-0.1,0.9-0.2,2-0.9,1.1c-1.5-1.9-4.1-4.1-6.3-5c-1.6-0.7-3.5-1.1-5.3-0.8c-2.2,0.3-4.3,1.6-5.7,3.3c0,0.7,0.2,1.4,0.3,2.1
	c-0.7,0-1.4,0-2.1,0c-0.3-2.7-0.5-5.3-0.7-8c-0.1-0.6,0-1.2-0.1-1.8c-0.1-0.5,0.1-1,0-1.5c0-0.6,0-1.2,0-1.8c0.1-0.5,0-1.1,0.1-1.6
	c0.1-0.4,0-0.8,0-1.2c0-0.2,0-0.5,0-0.7c-0.7,1.2-1.7,2.2-2.9,2.8c-0.6,0.3-1.5,0.5-2-0.1c-0.6,0.1-1.1,0.5-1.8,0.7
	c-0.6,0.2-1.2,0.1-1.8,0.1c-0.1-0.1-0.2-0.3-0.4-0.2c-0.5,0-0.9,0.2-1.4,0.2c-0.9,0.1-1.9,0.2-2.8-0.1c-0.2,0-0.3-0.3-0.3-0.5
	c-0.4-0.2-0.9-0.1-1.4-0.1c-0.6,0-1.2,0.1-1.7-0.1c0.2,0.8,0.2,1.6,0.4,2.3c0.2,1.3,0.4,2.7,0.6,4c1.6-1.2,3.4-2.1,5.4-2.4
	c2-0.4,4-0.1,5.9,0.6c1.4,0.5,2.5,1.2,3.7,2.1c-0.3,0.2-0.5,0.4-0.8,0.7c-1.7-1.2-3.6-2.2-5.7-2.4c-2.1-0.3-4.3,0.2-6.2,1.2
	c-1.2,0.7-1.8,1.4-2.4,1.9c-0.3,0.2-0.6,0.2-0.7-0.4c-0.1-1-0.3-1.9-0.4-2.9c-0.2-1.5-0.4-3.1-0.7-4.6c-0.3-0.1-0.5-0.1-0.8-0.2
	c0.3,2.6,0.7,5.3,1.1,7.9c0.1,0.6,0.2,1.2,0.2,1.9c0.2-0.1,0.4-0.2,0.5-0.4c2.1-2,5-3.3,7.9-3.4c0.5-0.1,1,0,1.5,0
	c0.4,0,0.9,0.1,1.3,0.2c1.9,0.4,3.8,1.2,5.4,2.2c-0.1,0.1-0.2,0.2-0.3,0.3c-0.2,0.1-0.4,0.3-0.6,0.3c-0.1,0-1.9-0.9-2.2-1.1
	c-1.2-0.5-2.4-0.9-3.7-1c-1.6-0.2-3.3,0.1-4.9,0.7c-1.2,0.5-2.3,1.2-3.3,2.1c-0.3,0.2-0.5,0.5-0.8,0.7c-0.2,0.2-0.5,0.5-0.7,0.7
	c-0.3,0.4-1,0.9-1,0c-0.4-4-0.9-8.1-1.5-12.1c-0.3,0-0.5-0.1-0.8-0.2c0.1,0.4,0.1,0.8,0.2,1.2c0.4,2.5,0.7,5.1,1.1,7.6
	c0.2,1.3,0.3,2.6,0.5,3.8c0.1,0.5,0.2,1,0.2,1.5c0.2-0.1,0.3-0.3,0.5-0.4c1.9-2.4,6.2-4.6,9-4.8c2.9-0.3,6,0.8,8,3
	c0.2,0.2,0.4,0.3,0.5,0.6c-0.2,0.3-0.5,0.5-0.8,0.7c-1.2-1.7-3.4-2.9-5.4-3.3c-1.5-0.3-3-0.1-4.4,0.3c-3,0.9-5.4,2.8-7.4,5.2
	c-1.1,1.3-1,0-1.1-0.8c-0.5-4.9-1.2-9.9-1.9-14.8c-0.4-0.1-0.7-0.3-1-0.5c0-0.2,0-0.4-0.2-0.5c-1.6-0.8-3-1.8-4.3-2.9
	c-0.4-0.4-0.9-0.7-1.3-1.2c0.1-0.2,0.1-0.5,0.4-0.6c0.6-0.2,1.3-0.4,1.9-0.6c0.9-0.3,1.7-0.9,2.5-1.4c0-0.1,0-0.2-0.1-0.4
	c0.2-0.3,0.5-0.3,0.8-0.5c-0.2-0.8-0.3-1.6-0.5-2.5C7.8,25.1,7,21.4,5.9,17.7c-0.1-0.3,0.1-0.7,0.5-0.6c0.3,0,0.5,0.3,0.5,0.5
	c1.2,4.4,2.1,8.8,2.8,13.2c0.2-0.1,0.5-0.3,0.7-0.4C9.6,26,8.8,21.4,7.5,17c0-0.2,0-0.4,0.1-0.6c0.2-0.1,0.6-0.1,0.7,0.1
	c0.1,0.3,0.2,0.6,0.3,0.9c1.1,4.1,1.9,8.2,2.6,12.4c0.2-0.1,0.3-0.2,0.5-0.4c0-0.3-0.1-0.6-0.2-0.9c-0.8-4.1-1.6-8.1-2.7-12.1
	c0,0,0-0.1,0-0.2c3.4-2.4,7.5-3.6,11.6-3.5c2.5,0,5.1,0.6,7.4,1.6c0.3-1,0.3-2.1,1-2.8c0.1,0,0.2,0,0.3-0.1c0.8-1.5,1.8-2.8,2.6-4.2
	C32.2,6.6,32.5,5.8,32.8,5.2L32.8,5.2L32.8,5.2L32.8,5.2z M33,6.6c-0.1,0.1-0.1,0.2-0.2,0.3c-0.2,0.3-0.4,0.6-0.6,0.9l0,0
	c-0.2,0.3-0.4,0.5-0.5,0.8c-0.7,1.2-1.4,2.4-2,3.6c0.2,0.7,0.7,1.3,1.2,1.8c0.8,0.7,1.7,1.3,2.8,1.5c0-0.4,0-0.9,0-1.3
	c-0.4-0.3-0.7-0.5-1.1-0.9c-0.7-0.7-1.2-1.6-1.4-2.6c0.1-0.2,0.3-0.2,0.4-0.1c0.4,1.1,1.1,2.1,2.1,2.7c0-0.3,0-0.5,0-0.8
	c-0.1-0.5,0-1.1-0.1-1.6c0-1.4-0.2-2.7-0.5-4.1l0,0C33.3,6.8,33.1,6.7,33,6.6L33,6.6L33,6.6L33,6.6z M33.6,6.7
	c0.6,2.4,0.7,4.8,0.6,7.2c0.4-0.4,0.9-0.8,1.2-1.3c0.1-0.1,0.3-0.4,0.4-0.5c0.3-0.5,0.6-1,0.9-1.5c-0.4-0.6-0.9-1.2-1.3-1.8
	C34.8,8.1,34.2,7.4,33.6,6.7L33.6,6.7L33.6,6.7L33.6,6.7z M37.1,11.1c-0.6,1.4-1.6,2.6-2.8,3.6c0.1,0.7-0.1,1.5-0.1,2.2
	c0,0-0.1,0.6-0.1,0.6c0,0.1,0,0.1,0,0.1c0.3-0.1,0.7-0.3,1-0.5c1.4-0.7,2.7-1.6,3.9-2.5C38.6,13.4,37.9,12.2,37.1,11.1L37.1,11.1
	L37.1,11.1L37.1,11.1z M28.3,15.8c0.7,1.8,2.3,3.3,4.3,3.5c0.3,0.1,0.5,0,0.8,0c0.1-1,0.2-2,0.3-3c-1.8-0.4-3.3-1.7-4.3-3.2
	C29,14,28.6,14.9,28.3,15.8L28.3,15.8L28.3,15.8L28.3,15.8z M13.9,14.6c-1.5,0.5-3,1.3-4.2,2.3c1,3.5,1.8,7,2.5,10.6
	c0.1,0.5,0.2,1,0.3,1.5c0.4-0.2,0.8-0.3,1.2-0.6c0-0.2,0-0.4,0-0.5c1.2-0.4,2.4-0.6,3.6-0.8c0.3,0,0.1-0.5,0.4-0.5
	c0.5-0.1,1.1,0,1.6,0.1c1.1,0.2,2.1,0.4,3.2,0.7c0.1-0.1,0.2-0.2,0.3-0.3c1.6,0.2,3.3,0.4,4.7,1.3c-1.2-2.6-1.8-5.6-1.5-8.5
	c0.2,0,0.3-0.1,0.5-0.3c0.1-1.1,0.2-2.2,0.4-3.3c0.1-0.3,0.3-0.8,0.7-0.7c0-0.1,0-0.2,0-0.2c-1.5-0.8-3.2-1.2-4.9-1.4
	C19.8,13.4,16.8,13.7,13.9,14.6L13.9,14.6L13.9,14.6L13.9,14.6z M40,14c0.1,0.2,0.3,0.2,0.5,0.3c0.4,1,0.2,2.1,0.4,3.2
	c0.8-0.1,1.7-0.4,2.6-0.4c0.8-0.1,1.7,0,2.5,0.1c2.1,0.3,3.9,1.4,5.5,2.7c0.2,0.2,0.3,0.5,0.1,0.8c-0.2,0.3-0.7,0.3-0.9,0.1
	c-0.5-0.4-1-0.8-1.5-1.1c-1.5-1-3.4-1.5-5.2-1.5c-1,0.1-1.9,0.2-2.8,0.4c0,0.9-0.2,1.7,0,2.6c0.1,0.1,0.3,0.1,0.4,0.2
	c0,0.1,0.1,0.2,0.1,0.3c-0.1,0.3-0.1,0.6-0.2,0.9c1.4-0.4,2.9-0.5,4.3-0.1c1.5,0.3,2.8,1.2,4,2.1c0.1,0.2,0.2,0.5,0,0.8
	c-0.1,0-0.2,0.1-0.3,0.1c-0.3-0.1-0.6-0.4-0.9-0.6c-0.8-0.6-1.6-1.1-2.6-1.4c-1.5-0.5-3.1-0.3-4.6,0c-0.3,1.9-1,3.8-2,5.5
	c1.1-0.4,2.2-0.8,3.3-0.9c0.5,0.1,1.1,0.2,1.5,0.6c0.6,0,1.1-0.1,1.7,0c1.1,0,2.1-0.2,3.2-0.2c0.5,0,0.6,0.5,0.7,0.8
	c0.5,0.1,1,0.3,1.5,0.4c0.1-0.8,0.3-1.6,0.4-2.4c0.7-3.4,1.4-6.8,2.4-10.2c-0.1-0.1-0.2-0.2-0.3-0.3c-0.2-0.2-0.4-0.4-0.7-0.5
	c-2.1-1.3-4.5-2.1-7-2.3C44.1,13.5,42,13.6,40,14L40,14L40,14L40,14z M38.7,15.6c-0.2,0.1-0.4,0.3-0.6,0.5c-0.1,0.1-0.2,0.1-0.3,0.2
	c-0.1,0-0.7,0.4-0.7,0.4c-1,0.6-2,1.2-3.1,1.6c-0.2,0.9-0.2,1.8-0.4,2.8c2.3-0.4,4.5-1.3,6.3-2.7c-0.2-1.1-0.4-2.1-0.8-3.1
	C39.1,15.3,38.9,15.5,38.7,15.6L38.7,15.6L38.7,15.6L38.7,15.6z M28,16.7c-0.3,1.2-0.6,2.3-0.8,3.5c0.4,0.7,1,1.2,1.5,1.7
	c1.1,1.1,2.5,1.8,3.9,2.5c0.3-1.5,0.6-3,0.7-4.5c-1.3,0-2.6-0.5-3.6-1.2C29,18.2,28.4,17.5,28,16.7L28,16.7L28,16.7L28,16.7L28,16.7
	z M33.7,21.7c0,0.1-0.1,0.2-0.1,0.2c-0.2,1-0.4,2.1-0.6,3.1c2.3-0.1,4.5-1.1,6.1-2.6c0.2-0.2,0.4-0.5,0.6-0.7
	c0.2-0.2,0.3-0.4,0.5-0.6c0.1-0.7,0-1.3-0.1-2C38.2,20.4,36,21.2,33.7,21.7L33.7,21.7L33.7,21.7L33.7,21.7z M27.1,21.2
	c0.1,0.5,0,1,0.1,1.5c0.1,0.9,0.2,1.8,0.7,2.6c0.7,1.2,2.1,2,3.5,2.1c0.2,0,0.4,0.1,0.6,0c0.2-0.7,0.3-1.5,0.5-2.2
	c-1.2-0.7-2.4-1.4-3.5-2.3c-0.4-0.3-0.6-0.7-1-0.9l0-0.1C27.6,21.7,27.3,21.5,27.1,21.2L27.1,21.2L27.1,21.2L27.1,21.2z M33.9,25.6
	c-0.3,0-0.6,0.1-0.9,0.1c-0.3,1.2-0.5,2.4-0.8,3.6c0.8,0.5,1.7,0.8,2.7,0.9c0.9,0,1.8-0.3,2.5-0.8c0.9-0.6,0.2-0.1,0.8-0.9
	c1.3-1.8,1.8-4,2.1-6.2C38.6,24.2,36.2,25.2,33.9,25.6L33.9,25.6L33.9,25.6L33.9,25.6z M28,26.6c0.7,1.9,1.6,3.6,2.9,5.2
	c0.3-1.3,0.7-2.5,0.9-3.8C30.4,28,29,27.5,28,26.6L28,26.6L28,26.6L28,26.6z M15.1,28.9c1.4,1.1,2.1,2.8,2.3,4.5
	c1.1-0.3,2.1-0.7,3.2-0.9c0-0.3,0-0.7-0.1-1c-0.3-1.4-1.1-2.7-2-3.7C17.3,28,16.2,28.4,15.1,28.9L15.1,28.9L15.1,28.9L15.1,28.9z
	 M19.2,27.8c0.6,0.7,1.2,1.4,1.5,2.3c0.3,0.7,0.4,1.5,0.5,2.3c1.1-0.2,2.1-0.3,3.2-0.3c0-1.1-0.2-2.3-0.8-3.3l0,0
	c-0.1-0.2-0.3-0.5-0.5-0.6C21.8,28,20.5,27.8,19.2,27.8L19.2,27.8L19.2,27.8L19.2,27.8z M24.1,28.4c0.1,0.2,0.2,0.5,0.3,0.7
	c0.4,0.9,0.5,2,0.5,3c0.8,0,1.6,0,2.3,0.1c1.3,0.2,2.6,0.8,3.7,1.5c-0.2-0.6-0.7-0.9-1-1.4l0-0.1l-0.1,0c-0.2-0.4-0.5-0.7-0.7-1
	c-0.3-0.5-0.8-0.9-1.2-1.3C26.7,29.2,25.4,28.8,24.1,28.4L24.1,28.4L24.1,28.4L24.1,28.4z M11.9,30.8c1,1,1.8,2.2,2.3,3.5
	c0.9-0.2,1.8-0.3,2.6-0.6c-0.2-1.7-1-3.3-2.3-4.5C13.7,29.6,12.7,30.1,11.9,30.8L11.9,30.8L11.9,30.8L11.9,30.8z M42.5,29.5
	c-0.6,0.7-0.9,1.5-1.3,2.3c-0.6,1.4-1,3-1,4.5c1,0.2,2.1,0.3,3.1,0.5l0.1,0c0.3-1.8,1-3.4,2-4.9c0.4-0.7,0.9-1.4,1.5-1.9
	C45.5,29.6,44,29.5,42.5,29.5L42.5,29.5L42.5,29.5L42.5,29.5z M38.2,30.6c-0.3,0.2-0.7,0.2-0.9,0.5c-0.2,0.2-0.5,0.4-0.8,0.7
	c0,0-0.6,0.5-0.6,0.5c-0.5,0.3-1,0.7-1.6,1c-0.5,0.3-1.1,0.5-1.4,1.1c0,0,0,0,0,0c2.2,0.6,4.4,1.3,6.7,1.9c0-0.7,0.1-1.4,0.2-2.1
	c0.4-1.6,0.9-3.2,1.8-4.5C40.5,29.7,39.3,30.1,38.2,30.6L38.2,30.6L38.2,30.6L38.2,30.6z M31.9,30c-0.1,0.8-0.4,1.6-0.6,2.5
	c0.2,0.3,0.5,0.5,0.7,0.8c1.5-0.7,3-1.5,4.2-2.6c-1.2,0.3-2.5,0.1-3.6-0.4C32.3,30.1,32.1,30,31.9,30L31.9,30L31.9,30L31.9,30z
	 M47.7,30c-0.6,0.5-1.1,1.2-1.5,1.8c-1,1.6-1.9,3.3-2.2,5.2c1.5,0.1,2.9,0.4,4.4,0.2c0.2-0.5,0.5-1,0.8-1.5c1-1.5,2.2-2.9,3.7-4
	C51.2,30.9,49.5,30.3,47.7,30L47.7,30L47.7,30L47.7,30z M9.7,32.4c0.8,0.6,1.6,1.3,2.1,2.2c0.6-0.1,1.3-0.1,1.9-0.3
	c-0.5-1.2-1.4-2.2-2.3-3.2C10.8,31.5,10.3,32,9.7,32.4L9.7,32.4L9.7,32.4L9.7,32.4z M52.3,32.9c-0.4,0.2-0.6,0.6-0.9,0.9
	c-0.3,0.5-0.8,0.9-1.1,1.3c-0.5,0.6-0.8,1.2-1.2,1.9c1.3-0.3,2.5-0.7,3.8-0.7c0.9-1.1,1.9-2.1,3.2-2.5c-0.8-0.7-1.7-1.2-2.7-1.7
	c-0.1,0.1-0.2,0.2-0.4,0.3C53,32.4,52.4,32.8,52.3,32.9L52.3,32.9z M20.6,33.2c0.4,2.6,0.1,5.3-1.2,7.6c0.6,0.2,1.3,0,2,0.1
	c0.6,0,1.3-0.1,1.9,0c0.2-0.2,0.3-0.5,0.4-0.7c0.8-2.3,0.8-4.9,0.2-7.3C22.7,32.8,21.7,33,20.6,33.2L20.6,33.2L20.6,33.2L20.6,33.2z
	 M24.4,32.8c0.1,0.4,0.2,0.9,0.3,1.3c0.3,1.5,0.3,3,0,4.4c-0.1,0.8-0.4,1.5-0.6,2.2c0.1,0,0.3,0,0.3-0.1c0.7-0.1,1.3-0.2,1.9-0.4
	c0.2-0.1,0.5-0.1,0.6-0.3c0.6-1.4,0.9-2.9,1-4.4c0-0.8,0.1-1.6-0.1-2.3c0-0.1,0-0.2,0-0.2C26.8,32.8,25.6,32.7,24.4,32.8L24.4,32.8
	L24.4,32.8L24.4,32.8z M8.4,33.3c-0.9,0.5-1.8,0.9-2.8,1.4c1,0.1,2.1,0.3,3.1,0.1c0.7,0,1.4-0.1,2.1-0.1c0.1,0.2,0.4,0,0.3-0.2
	c0-0.1-0.1-0.2-0.2-0.2c-0.2-0.2-0.3-0.4-0.5-0.5c-0.1-0.2-0.3-0.3-0.5-0.5c-0.2-0.2-0.5-0.4-0.7-0.5C8.9,33,8.7,33.2,8.4,33.3
	L8.4,33.3L8.4,33.3L8.4,33.3z M28.5,33.2c0.4,2.2,0.1,4.6-0.7,6.6c0.3-0.1,0.6-0.3,0.9-0.5c0.4-0.3,0.2-0.1,0.6-0.4
	c1.3-1.1,1.7-2.8,1.8-4.4C30.2,34,29.4,33.5,28.5,33.2L28.5,33.2L28.5,33.2L28.5,33.2z M16.4,34.4c0,0.6,0,1.1-0.1,1.7
	c-0.2,1.5-0.9,2.8-1.9,3.9c1.2,0.2,2.4,0.5,3.6,0.7c0.3,0.1,0.6,0.1,0.9,0.1c0.4-0.9,0.8-1.8,1-2.8c0.3-1.5,0.5-3,0.2-4.5
	C18.8,33.7,17.6,34.1,16.4,34.4L16.4,34.4L16.4,34.4L16.4,34.4z M54.9,35c-0.2,0.1-0.4,0.1-0.5,0.3c-0.1,0.1-0.2,0.3-0.3,0.4
	c-0.1,0.1-0.2,0.2-0.3,0.3c1.8,0,3.6,0.3,5.2,0.9c-0.4-1-1.2-1.7-1.9-2.5c-0.2-0.1-0.3-0.3-0.5-0.4C56,34.3,55.4,34.6,54.9,35
	L54.9,35L54.9,35L54.9,35z M12.6,35.2c-0.3,0.8-0.8,1.4-1.3,2.1c-0.2,0.2-0.4,0.4-0.6,0.7c-0.2,0.2-0.3,0.3-0.5,0.5
	c0.9,0.5,1.8,0.9,2.8,1.2c0.3,0.1,0.5,0.2,0.8,0.1c0-0.1,0.1-0.2,0.2-0.2c0.2-0.2,0.4-0.4,0.5-0.6c0.1-0.1,0.1-0.2,0.2-0.4
	c0.8-1.2,1.1-2.6,1.2-4C14.8,34.8,13.7,35,12.6,35.2L12.6,35.2L12.6,35.2L12.6,35.2z M32.7,34.9c0,0.5,0.2,1,0.5,1.3
	c0.8,1.1,1.6,2.3,2.7,3.2c0.8,0.7,1.8,1.3,2.8,1.8c-0.7-1-1.2-2.1-1.6-3.3c-0.2-0.6-0.4-1.2-0.4-1.8C35.4,35.7,34,35.3,32.7,34.9
	L32.7,34.9L32.7,34.9L32.7,34.9z M8.3,35.5c-0.8,0-1.7-0.1-2.5-0.1c1.1,1,2.4,1.9,3.6,2.7l0,0l-0.1,0c0.3,0,0.4-0.2,0.6-0.4
	c0.4-0.5,0.9-1,1.3-1.5c0.2-0.3,0.4-0.6,0.6-1C10.7,35.4,9.5,35.5,8.3,35.5L8.3,35.5L8.3,35.5L8.3,35.5z M37.3,36.3
	c0.3,1.7,1.1,3.4,2.1,4.8c0.2,0.2,0.3,0.6,0.7,0.7c1,0.3,2.1,0.6,3.1,0.8C41.8,41,40.6,39.1,40,37C39.1,36.8,38.2,36.5,37.3,36.3
	L37.3,36.3L37.3,36.3L37.3,36.3z M49.7,37.6c0.1,0.3,0.4,0.5,0.6,0.7c1.2,1,2.6,1.9,4.1,2.4c0.7-0.5,1.2-1.2,1.9-1.7
	c0.7-0.6,1.6-0.9,2.4-1.2c-0.1-0.2-0.4-0.2-0.6-0.2c-1.3-0.4-2.7-0.7-4.2-0.6C52.6,36.9,51.1,37.3,49.7,37.6L49.7,37.6L49.7,37.6
	L49.7,37.6z M32.3,37.1c0,0.2-0.1,0.5,0,0.7c0.1,0.6,0,1.1,0.1,1.7c0.1,0.5,0,1.1,0.1,1.6c0.1,0.4,0,0.9,0,1.3
	c0.1,2.4,0.3,4.7,0.5,7.1l0.1,0.1c2.1-1.4,4.6-2.3,7.2-2.4c0.5-0.1,0.9,0,1.4,0c2.3,0.2,4.5,1,6.3,2.4c0.2,0.2,0.4,0.3,0.6,0.5
	c0.3,0.3,0.7,0.6,1.1,1c0.3-2.3,0.6-4.6,0.9-6.9c0.1-0.3,0.1-0.6,0.1-0.8c-0.2,0-0.5-0.1-0.7-0.1c-0.1,0.1-0.1,0.3-0.1,0.5
	c-0.3,1.7-0.5,3.5-0.8,5.2c-0.3,1.5-1.3-0.3-2.7-1.2c-0.9-0.6-2-1-3.1-1.3c-2.5-0.6-5.2-0.1-7.4,1.1c-0.6,0.3-1.2,0.8-1.8,1.1
	c-0.2-0.2-0.5-0.4-0.8-0.7c0.4-0.2,0.7-0.5,1-0.7c2.4-1.6,5.3-2.3,8.1-2c1.7,0.2,3.3,0.8,4.7,1.7c0.3,0.2,0.7,0.4,1,0.7
	c0.1,0.1,0.2-0.1,0.2-0.3c0.2-1.1,0.3-2.2,0.5-3.3c-1.1,0.4-2.2,0-3.3-0.2c-0.3-0.1-0.6-0.3-0.9-0.1c-0.1,0.3-0.1,0.5-0.2,0.8
	c-0.5,0.1-1.1-0.1-1.6-0.3c-1.3-0.6-2.7-1-3.8-1.9C39,42.7,38.9,43,38.7,43c-0.2,0-1.4-0.7-1.7-0.9c-0.9-0.6-1.8-1.3-2.6-2.1
	c-0.4-0.4-0.7-0.8-1-1.3c-0.1-0.1-0.5-0.8-0.6-0.9C32.6,37.6,32.5,37.4,32.3,37.1L32.3,37.1L32.3,37.1L32.3,37.1z M40.7,37.1
	c0.2,0.7,0.5,1.3,0.8,2c0.7,1.3,1.6,2.5,2.8,3.5c0.4,0.2,0.9,0.1,1.3,0.2c1.1,0,2.1,0.1,3.2-0.1c-0.4-0.4-0.9-0.7-1.2-1.2
	c-1-1.1-1.9-2.3-2.4-3.7c-0.2-0.1-0.5-0.1-0.7-0.1C43.2,37.5,41.9,37.3,40.7,37.1L40.7,37.1L40.7,37.1L40.7,37.1z M45.8,37.8
	c0.8,1.7,2,3.2,3.5,4.5c0.1,0.1,0.3,0.2,0.5,0.3c1.4-0.2,2.8-0.8,4.1-1.5c-0.9-0.3-1.7-0.7-2.5-1.3c-0.2-0.1-0.4-0.3-0.6-0.5
	c-0.6-0.5-1.2-1-1.7-1.6c-0.4,0.1-0.7,0.2-1.1,0.1C47.2,37.9,46.5,37.9,45.8,37.8L45.8,37.8L45.8,37.8L45.8,37.8z M12.9,40.8
	C12.9,40.8,12.9,40.8,12.9,40.8L12.9,40.8L12.9,40.8L12.9,40.8z M51.5,43.2c-0.3,1.6-0.4,3.1-0.6,4.7c-0.1,1.4-0.3,2.8-0.4,4.2
	c0,0.3-0.2,1.2-0.7,0.8c-1.5-1.7-3.4-3.3-5.6-4.1c-1.6-0.6-3.3-0.8-5-0.6c-1.6,0.2-3.1,0.8-4.4,1.5c-0.2,0.1-0.5,0.3-0.6,0.3
	c-0.2,0.1-0.4,0.2-0.5,0.3c-0.2-0.2-0.4-0.4-0.7-0.6c0.1,0.7,0.1,1.4,0.3,2.1c0.7-0.7,1.4-1.3,2.3-1.7c1.4-0.8,3.1-1.2,4.7-1.2
	c4.2,0,7.8,2.3,10.5,5.4c0.3-2.3,0.6-4.5,0.9-6.8c0.2-1.5,0.4-3,0.6-4.5C52,43.1,51.8,43.2,51.5,43.2L51.5,43.2z M18.1,22.4
	c1.9-0.5,3.9-0.1,5.7,0.5c0.3,0.1,0.7,0.2,0.7,0.6c0.1,0.3-0.2,0.4-0.5,0.4c-1-0.3-1.9-0.6-3-0.6c-0.4-0.1-0.9,0-1.3,0
	c-1.8,0-3.5,0.9-4.9,2.1c-0.3,0.3-0.8,0.1-0.8-0.3c0-0.3,0.2-0.5,0.4-0.6C15.6,23.4,16.8,22.7,18.1,22.4L18.1,22.4z M17.9,17.1
	c2.3-0.4,4.6,0.2,6.8,0.9c0.2,0,0.3,0.2,0.4,0.4c0,0.1,0,0.3,0,0.4c-0.2,0.5-0.8,0.2-1.2,0.1c-1.3-0.4-2.7-0.6-4-0.7
	c-1.7,0-3.3,0.4-4.8,1.3c-0.8,0.4-1.4,1-2.1,1.5c-0.2,0-0.3,0-0.5,0c-0.1-0.1-0.2-0.2-0.3-0.3c0-0.2,0-0.5,0.2-0.7
	C14,18.5,15.9,17.5,17.9,17.1L17.9,17.1z"/>
</svg>
